<svg width="580" height="400" xmlns="http://www.w3.org/2000/svg">
 <!-- Created with Method Draw - http://github.com/duopixel/Method-Draw/ -->
 <g>
  <title>background</title>
  <rect fill="#fff" id="canvas_background" height="402" width="582" y="-1" x="-1"/>
  <g display="none" overflow="visible" y="0" x="0" height="100%" width="100%" id="canvasGrid">
   <rect fill="url(#gridpattern)" stroke-width="0" y="0" x="0" height="100%" width="100%"/>
  </g>
 </g>
 <g>
  <title>Layer 1</title>
  <line stroke="#000" stroke-linecap="undefined" stroke-linejoin="undefined" id="svg_1" y2="186.453125" x2="226.500015" y1="186.453125" x1="576.5" stroke-width="1.5" fill="none"/>
  <path stroke="#000" d="m232.500013,186.453125c-1.114458,0 -1.114458,0 -1.114458,0c-1.114458,0 -1.114458,0 -1.114458,0c-1.114458,0 -1.114458,0 -2.228916,0c-1.114458,0 -2.228916,0 -2.228916,0c0,0 -1.114458,0 -2.228916,0c-2.228916,0 -3.343374,0 -4.457832,0c0,0 -2.228916,1.268778 -5.57229,1.268778c-2.228916,0 -4.457832,1.268778 -5.57229,1.268778c0,0 -0.084839,-0.485549 -1.114458,0c-1.456111,0.686661 -5.57229,1.268778 -6.686748,1.268778c-1.114458,0 -1.006168,1.553235 -3.343374,2.537556c-4.309614,1.814982 -6.686748,2.537556 -7.801206,2.537556c-1.114458,0 -3.211328,1.510197 -6.686748,3.806334c-2.155351,1.424007 -3.428213,0.783229 -4.457832,1.268778c-1.456111,0.686661 -1.887263,1.850895 -3.343374,2.537556c-1.029619,0.485549 -2.228916,1.268778 -2.228916,1.268778c-2.228916,2.537556 -5.917786,4.234539 -8.915664,6.34389c-1.340696,0.943336 -2.228916,1.268778 -2.228916,1.268778c-1.114458,0 -3.373184,0.977274 -4.457832,1.268778c-2.425344,0.651832 -2.237265,1.113762 -3.343374,1.268778c-4.560603,0.639171 -9.003079,1.002152 -12.259037,2.537556c-2.302311,1.08571 -3.343374,1.268778 -3.343374,1.268778c-1.114458,0 -3.260677,0.631291 -8.915664,1.268778c-1.109033,0.125027 -7.801206,0 -8.915664,0c-1.114458,0 -4.457832,0 -8.915664,0c-4.457832,0 -7.801206,0 -8.915664,0c-1.114458,0 -3.343374,-2.537556 -6.686748,-3.806334c-3.343374,-1.268778 -3.343374,-2.537556 -4.457832,-2.537556c-1.114458,0 -3.001721,-1.850895 -4.457832,-2.537556c-2.05925,-0.971079 -3.001721,-0.582117 -4.457832,-1.268778c-1.029623,-0.485549 -3.343374,-2.537556 -4.457832,-2.537556c0,0 0.196424,-1.885724 -2.228916,-2.537556c-2.169291,-0.583008 -3.343374,-1.268778 -3.343374,-1.268778c0,0 -2.313751,-0.783229 -3.343374,-1.268778c-1.456111,-0.686661 -2.228916,-1.268778 -3.343374,-2.537556c-1.114458,-1.268778 -0.950331,-2.757176 -2.228916,-3.806334c-2.021617,-1.658863 -3.001721,-3.119673 -4.457832,-3.806334c-1.029623,-0.485549 -0.772805,-0.582117 -2.228916,-1.268778c-1.029623,-0.485549 -1.887263,-0.582117 -3.343374,-1.268778c-1.029625,-0.485549 -2.228916,0 -3.343374,0c0,0 0,0 -1.114458,-1.268778c0,0 0,0 0,0c0,0 -1.114458,0 -1.114458,0l0,0" id="svg_5" fill-opacity="null" stroke-opacity="null" stroke-width="1.5" fill="none"/>
  <line stroke-linecap="null" stroke-linejoin="null" id="svg_6" y2="187.453125" x2="-0.5" y1="187.453125" x1="49.5" fill-opacity="null" stroke-opacity="null" stroke-width="1.5" stroke="#000" fill="none"/>
 </g>
</svg>